# xmcd
#
# Track frame offsets:
#	150
#	17820
#	32355
#	42205
#	57355
#	71780
#	81660
#	99540
#	111320
#	124777
#
# Disc length: 1866 seconds
#
# Revision: 0
# Processed by: cddbd v1.5.2PL0 Copyright (c) Steve Scherf et al.
# Submitted via: EasyCDDAExtractor 11.0.2.1
#
DISCID=8807480a
DTITLE=Lissette - Palabras, Palabras
DYEAR=1972
DGENRE=Latin
TTITLE0=Palabras, Palabras
TTITLE1=Siempre
TTITLE2=Domimum Tecum
TTITLE3=Usted Abuso
TTITLE4=Cada Vez Mas
TTITLE5=Hay Que Reir, Que Cantar
TTITLE6=Carta De Un Leon A Otro
TTITLE7=Camino, Caminito
TTITLE8=Juntos
TTITLE9=Adios Al Amor
EXTD=
EXTT0=
EXTT1=
EXTT2=
EXTT3=
EXTT4=
EXTT5=
EXTT6=
EXTT7=
EXTT8=
EXTT9=
PLAYORDER=
